Coordinates
version=1
nRows=10
nColumns=27
inDegrees=yes

Units are S.I. units (second, meters, Newtons, ...)
If the header above contains a line with 'inDegrees', this indicates whether rotational values are in degrees (yes) or radians (no).

endheader
time	pelvis_rotation	pelvis_tilt	pelvis_list	pelvis_tx	pelvis_ty	pelvis_tz	hip_flexion_r	hip_adduction_r	hip_rotation_r	knee_angle_r	knee_rotation_r	knee_adduction_r	knee_angle_r_beta	ankle_angle_r	subtalar_angle_r	mtp_angle_r	hip_flexion_l	hip_adduction_l	hip_rotation_l	knee_angle_l	knee_rotation_l	knee_adduction_l	knee_angle_l_beta	ankle_angle_l	subtalar_angle_l	mtp_angle_l
      5.24500000	     10.13687938	    -35.31890983	      6.58632159	     -0.05429853	      0.65252382	     -1.18470145	     97.95232716	    -42.98339742	     -6.81081104	     76.51679181	     -8.58951559	      9.16475550	      1.33546995	      8.31858923	      0.20308259	      0.00000000	     95.53846416	    -24.96849414	     -9.36656507	     70.44412153	     -8.02978561	     -9.55038541	      1.22948186	      6.47176756	     16.63494895	      0.00000000
      5.25000000	     10.72024727	    -34.95948541	      6.55004661	     -0.05295478	      0.65376620	     -1.18504517	     96.98193601	    -43.73443224	     -8.16015983	     76.24996131	     -9.15051164	      9.54895381	      1.33081288	      8.36408908	      0.34843459	      0.00000000	     95.17009160	    -24.28816306	     -9.62711037	     70.18577171	     -8.61578371	     -9.75801135	      1.22497280	      6.47592906	     16.76244032	      0.00000000
      5.25500000	     10.31265993	    -35.28027556	      6.37762534	     -0.05336444	      0.65316126	     -1.18467280	     97.40938790	    -43.24135923	     -7.40392933	     76.40311226	     -8.60031719	      9.16987486	      1.33348587	      8.41870656	      0.37214981	      0.00000000	     95.55736459	    -24.81041820	     -9.02830162	     70.39188011	     -7.97771366	     -9.55005257	      1.22857007	      6.49397897	     16.66298843	      0.00000000
      5.26000000	     10.78769731	    -34.87979382	      6.46949393	     -0.05206243	      0.65437473	     -1.18497668	     96.60228363	    -43.85371111	     -8.44853636	     76.16553318	     -9.13918115	      9.54909533	      1.32933933	      8.42301029	      0.42549078	      0.00000000	     95.01911429	    -24.25785046	     -9.54321730	     70.11407311	     -8.58572528	     -9.75817314	      1.22372143	      6.52900914	     16.85941006	      0.00000000
      5.26500000	     10.44142200	    -34.80704805	      6.63266410	     -0.05171370	      0.65457054	     -1.18484094	     96.81771230	    -43.46691245	     -7.90245038	     76.19673916	     -9.10621865	      9.54321879	      1.32988398	      8.44782457	      0.40439257	      0.00000000	     94.65445281	    -24.67839386	    -10.05915584	     70.06945892	     -8.61300645	     -9.75931796	      1.22294276	      6.61223604	     17.11785665	      0.00000000
      5.27000000	     10.25598902	    -35.13105730	      6.50880865	     -0.05219636	      0.65404479	     -1.18456937	     97.20405049	    -43.19871855	     -7.25870971	     76.32840136	     -8.56221321	      9.17274104	      1.33218192	      8.41857224	      0.39789480	      0.00000000	     95.08357994	    -24.95470806	     -9.36156601	     70.23952352	     -7.95632896	     -9.55123989	      1.22591095	      6.59369871	     16.84826025	      0.00000000
      5.27500000	     10.61061157	    -34.76413591	      6.59794348	     -0.05094922	      0.65515737	     -1.18479473	     96.50075508	    -43.67762089	     -8.19472355	     76.11759117	     -9.10403820	      9.54362588	      1.32850258	      8.50478406	      0.53311482	      0.00000000	     94.56351575	    -24.55005495	     -9.94698945	     69.98630112	     -8.56041914	     -9.75811120	      1.22149139	      6.60664493	     17.12356802	      0.00000000
      5.28000000	     10.74588668	    -34.73011395	      6.44301854	     -0.05056535	      0.65555061	     -1.18478093	     96.12005748	    -43.85498995	     -8.64065670	     76.02830699	     -9.11402605	      9.55288298	      1.32694428	      8.47481318	      0.50709393	      0.00000000	     94.59849026	    -24.40741258	     -9.67543465	     69.93575597	     -8.52281056	     -9.75999811	      1.22060921	      6.55973039	     17.09982834	      0.00000000
      5.28500000	     10.76152830	    -34.69653727	      6.40875879	     -0.05020176	      0.65585907	     -1.18473895	     95.95378974	    -43.88793923	     -8.76464872	     75.98275351	     -9.11070596	      9.55433805	      1.32614922	      8.49242309	      0.53508306	      0.00000000	     94.52271415	    -24.41359294	     -9.65219121	     69.89231160	     -8.50109447	     -9.76038564	      1.21985096	      6.56218696	     17.14192934	      0.00000000
      5.29000000	     10.58750547	    -34.62093931	      6.52134602	     -0.04986703	      0.65606521	     -1.18467645	     96.03415964	    -43.70934172	     -8.46108488	     75.98782107	     -9.08473979	      9.55450954	      1.32623767	      8.48958305	      0.50090542	      0.00000000	     94.25365294	    -24.63115796	     -9.95912459	     69.85353547	     -8.50354520	     -9.76201849	      1.21917419	      6.61740656	     17.24713936	      0.00000000
